<svg width="30" height="30" viewBox="0 0 24 24" fill="none" xmlns="http://www.w3.org/2000/svg">
<path d="M9.73535 12C9.73535 12.3569 10.0342 12.6558 10.3828 12.6558L18.9077 12.6558L20.1528 12.606L19.5635 13.1621L18.2187 14.4238C18.0859 14.5401 18.0195 14.7144 18.0195 14.8721C18.0195 15.2124 18.2686 15.478 18.6089 15.478C18.7832 15.478 18.916 15.4033 19.0405 15.2788L21.7466 12.4732C21.9126 12.3071 21.9707 12.166 21.9707 12C21.9707 11.8257 21.9126 11.6846 21.7466 11.5186L19.0405 8.71291C18.916 8.58839 18.7832 8.51369 18.6089 8.51369C18.2686 8.51369 18.0195 8.76271 18.0195 9.11134C18.0195 9.26906 18.0859 9.45168 18.2187 9.56789L19.5635 10.8296L20.1528 11.3858L18.9077 11.336L10.3828 11.336C10.0342 11.336 9.73535 11.6431 9.73535 12ZM3.23584 7.23537V16.7564C3.23584 18.4912 4.09912 19.3628 5.80908 19.3628H14.0933C15.8032 19.3628 16.6665 18.4912 16.6665 16.7564V14.4404H15.3301L15.3301 16.7315C15.3301 17.5532 14.8818 18.0264 14.0186 18.0264H5.88379C5.02051 18.0264 4.57227 17.5532 4.57227 16.7315V7.25197C4.57227 6.42189 5.02051 5.96535 5.88379 5.96535L14.0186 5.96535C14.8818 5.96535 15.3301 6.42189 15.3301 7.25197L15.3301 9.55128H16.6665L16.6665 7.23537C16.6665 5.5005 15.8032 4.62892 14.0933 4.62892L5.80908 4.62892C4.09912 4.62892 3.23584 5.5005 3.23584 7.23537Z" fill="black"/>
</svg>
