<svg width="24" height="24" viewBox="0 0 24 24" fill="none" xmlns="http://www.w3.org/2000/svg">
<g clip-path="url(#clip0_174_504)">
<path d="M13.6934 21.1875C14.291 21.1875 14.7144 20.6729 15.0215 19.876L20.4585 5.67334C20.6079 5.2915 20.6909 4.95117 20.6909 4.66895C20.6909 4.12939 20.3589 3.79736 19.8193 3.79736C19.5371 3.79736 19.1968 3.88037 18.8149 4.02979L4.5376 9.5C3.84033 9.76562 3.30078 10.189 3.30078 10.7949C3.30078 11.5586 3.88184 11.8159 4.67871 12.0566L10.6719 13.8164L12.415 19.7349C12.6558 20.5732 12.9214 21.1875 13.6934 21.1875ZM11.0454 12.5547L5.31787 10.8032C5.17676 10.7617 5.14355 10.7285 5.14355 10.6704C5.14355 10.6123 5.17676 10.5708 5.30127 10.521L16.5239 6.271C17.188 6.02197 17.8188 5.68994 18.4414 5.40771C17.8936 5.85596 17.2046 6.38721 16.7563 6.84375L11.0454 12.5547ZM13.8179 19.3613C13.7598 19.3613 13.7266 19.3032 13.6768 19.1704L11.9253 13.4429L17.6445 7.73193C18.0928 7.28369 18.6489 6.58643 19.0889 6.02197C18.8066 6.65283 18.4663 7.29199 18.2173 7.96436L13.959 19.187C13.9175 19.3115 13.876 19.3613 13.8179 19.3613Z" fill="black"/>
</g>
<defs>
<clipPath id="clip0_174_504">
<rect width="24" height="24" fill="white"/>
</clipPath>
</defs>
</svg>
